<svg width="388" height="154" viewBox="0 0 388 154" fill="none" xmlns="http://www.w3.org/2000/svg">
<path fill-rule="evenodd" clip-rule="evenodd" d="M68.6516 95.3551C72.6168 97.207 78.0361 96.1487 80.4152 93.7677C84.6449 95.8842 89.1389 96.0164 92.4433 93.7677C95.6155 95.6196 101.696 96.4133 105.397 93.6354C108.701 95.6196 114.12 96.0164 118.085 92.7095C121.654 94.9582 125.487 94.5614 129.453 93.1063C126.28 95.6196 121.522 96.281 117.689 94.6937C113.724 97.7361 110.023 97.8684 105 95.6196C100.903 98.662 96.8051 99.1911 92.7076 96.6778C87.6849 98.7943 85.3058 98.2652 80.5474 96.6778C75.5247 98.5298 72.0881 98.1329 68.6516 95.3551Z" fill="white"/>
<path fill-rule="evenodd" clip-rule="evenodd" d="M81.8691 89.0056C93.1041 89.2702 106.322 89.7993 118.085 89.0056C117.16 89.2702 116.896 88.8733 117.028 89.7993C104.736 90.7252 94.4259 90.9898 81.8691 89.0056Z" fill="white"/>
<path fill-rule="evenodd" clip-rule="evenodd" d="M78.5648 89.0056C92.1789 91.2544 103.81 91.7835 115.706 90.4607C114.252 91.7835 113.988 92.4449 113.988 93.6354C112.534 94.2968 107.776 94.4291 105 92.974C101.696 94.4291 97.466 95.6196 92.0467 93.2385C90.4606 94.4291 86.8919 94.5613 85.1736 94.2968C83.984 92.7094 82.53 90.8575 78.5648 89.0056Z" fill="white"/>
<path fill-rule="evenodd" clip-rule="evenodd" d="M93.765 33.3162C97.0694 36.4909 102.621 37.9459 106.322 38.0782C103.282 39.6656 99.8451 40.3269 95.8798 40.1947C94.8224 38.8719 93.8972 36.2263 93.765 33.3162Z" fill="white"/>
<path fill-rule="evenodd" clip-rule="evenodd" d="M94.4259 75.6455C95.4833 81.3335 101.563 85.831 104.736 86.3601C103.678 86.757 95.0867 86.3601 94.1615 86.7569C94.2937 80.4076 94.4259 78.2911 94.4259 75.6455Z" fill="white"/>
<path fill-rule="evenodd" clip-rule="evenodd" d="M93.8972 64.1372C96.4085 75.5132 107.511 83.9791 114.517 85.1696C112.402 85.9632 107.776 85.831 105.661 86.4924C99.7129 84.3759 96.012 77.3651 93.8972 73.529V64.1372Z" fill="white"/>
<path fill-rule="evenodd" clip-rule="evenodd" d="M94.1615 52.7612C97.5981 71.4126 117.821 80.8044 128.131 82.524C124.959 83.5822 119.011 83.9791 115.838 85.0373C102.753 80.2753 97.8625 71.2803 94.0294 63.7404C94.0294 60.3011 94.1615 56.2005 94.1615 52.7612Z" fill="white"/>
<path fill-rule="evenodd" clip-rule="evenodd" d="M93.6328 39.5332C98.1268 64.0048 122.844 77.8941 140.688 78.8201C136.458 80.2751 132.228 81.7302 127.999 83.1853C111.08 76.8359 101.696 71.4125 93.8972 53.8193C93.8972 49.3219 93.765 44.0307 93.6328 39.5332Z" fill="white"/>
<path fill-rule="evenodd" clip-rule="evenodd" d="M78.3004 84.905C79.8865 75.5132 83.1909 62.8144 90.4606 56.3328C87.5527 60.1689 85.4379 74.3227 92.1789 85.9633C89.9319 85.1696 82.3978 81.2012 78.3004 84.905Z" fill="white"/>
<path fill-rule="evenodd" clip-rule="evenodd" d="M79.7543 88.0797C84.3805 88.0797 89.1388 88.212 93.8972 88.212V86.7569C93.5007 77.4974 93.2363 67.0473 93.3685 57.6555C93.5006 49.1897 93.2363 39.6656 93.6328 31.1997C94.4259 36.7554 94.6902 45.2213 94.8224 52.4966C98.1268 61.3593 102.489 65.9891 109.758 72.0739C115.838 77.1005 120.068 79.217 127.073 81.9949C131.303 81.0689 135.533 80.143 139.762 78.8202C140.159 78.6879 140.423 78.5556 140.688 78.5556C139.63 78.5556 138.573 78.5556 136.59 78.1588C118.35 75.1163 94.0294 57.6555 94.1615 36.6231C96.2763 47.47 99.8451 53.6871 107.908 61.0948C116.367 68.8992 130.113 77.1005 141.481 78.0265H142.802C143.067 78.0265 143.331 77.8942 143.595 77.8942C143.463 77.8942 143.331 78.0265 143.199 78.1588H144.124C143.595 78.291 143.067 78.291 142.67 78.4233C131.171 84.3759 106.85 88.4765 94.2937 86.8892V88.3443C100.506 88.4765 106.718 88.6088 112.798 88.7411C114.781 88.7411 116.631 88.7411 118.482 88.8734H118.878L119.011 88.7411C118.746 88.8734 117.821 89.2702 117.425 89.5348C117.557 89.667 117.689 89.7993 117.689 89.9316C117.557 90.7253 116.103 90.0639 115.045 92.7095C115.971 92.3126 116.896 91.7835 118.085 91.1221C118.746 90.7253 119.407 92.5772 122.579 92.8417C124.826 92.974 127.734 92.4449 129.981 92.1803C126.677 93.3709 121.39 94.9582 118.35 92.1803C117.028 93.1063 115.838 93.7677 114.649 94.1645C111.873 95.2228 109.362 94.9582 105.925 93.2386C100.77 95.355 98.1268 95.8842 92.8398 93.3709C88.8745 95.4873 84.777 95.4873 80.9439 92.974C78.036 94.6936 71.4272 97.3392 69.048 94.0322C73.8064 97.2069 80.283 91.3867 81.2083 91.9158C82.3978 92.7095 83.5874 93.2386 84.6448 93.3709C84.1161 92.974 83.7196 92.5772 82.6622 91.9158C80.1509 90.1962 78.8291 89.5348 76.7143 88.3443C72.4846 87.4183 68.6515 86.2278 66.008 84.6404C71.295 86.3601 75.5247 87.286 79.7543 88.0797ZM114.384 92.974C114.384 91.6512 114.781 90.593 115.838 89.9316C107.511 91.519 92.8398 91.2544 81.0761 89.2702C82.9265 90.1962 84.5127 91.6512 85.8344 93.5031C88.0814 93.7677 90.3284 93.1063 92.4432 91.9158C93.2363 91.3867 94.4259 92.5772 95.2189 92.7095C101.035 94.5614 105.397 91.1221 106.322 91.6512C110.023 93.7677 111.873 93.9 114.384 92.974ZM91.9145 54.6131C86.6275 61.8884 83.984 66.2537 81.2083 75.1163C80.283 78.1588 79.7543 81.0689 78.8291 84.1113C78.5647 73.6613 83.8518 61.0948 91.9145 54.6131ZM94.4259 86.6246C97.8625 86.0955 101.299 85.831 104.868 85.4341C102.356 84.905 99.7129 83.0531 97.9946 81.3335C95.8798 79.0847 95.2189 77.7619 94.6902 75.5132C94.6902 79.3493 94.5581 83.0531 94.4259 86.6246ZM94.8224 74.3227C98.259 79.8784 100.903 82.1271 106.454 85.4341C108.701 85.1696 110.948 84.905 113.195 84.5082C113.459 84.5082 113.856 84.3759 114.252 84.3759C108.04 82.524 100.77 76.5714 97.3338 71.0157C96.2763 69.2961 95.6155 67.9733 95.0868 66.5182C94.9546 69.0315 94.9546 71.6771 94.8224 74.3227ZM115.442 84.1113C119.275 83.4499 123.108 82.7885 127.073 81.9949C116.235 80.2752 105.264 72.2062 99.0521 62.9467C97.0694 59.9043 95.8798 57.6555 95.0868 54.6131V63.6081C97.7303 70.222 100.77 73.529 106.586 78.4233C109.494 80.8043 112.138 82.3917 115.442 84.1113ZM94.2937 89.2702V89.5348C95.6155 89.667 96.9372 89.667 98.259 89.7993C104.603 90.0639 110.287 89.9316 116.499 89.667H116.631C116.631 89.4025 116.896 89.1379 117.292 89.0056C111.477 89.4025 102.621 89.5348 94.2937 89.2702ZM94.1615 89.5348V89.2702C91.518 89.1379 89.0067 89.0056 86.6275 88.8734C88.8745 89.1379 91.3858 89.2702 94.1615 89.5348ZM94.9546 33.713C100.638 37.1523 103.678 37.9459 109.89 39.401C108.304 39.5333 108.04 39.6656 106.983 39.5333C103.017 41.6497 100.242 42.0466 95.4833 41.3852C98.7877 40.5915 102.224 39.9301 105.661 39.401C101.299 38.8719 97.8625 37.2845 94.9546 33.713ZM92.3111 54.2163C89.271 61.227 89.4032 66.7828 90.3284 74.3227C90.8571 78.5556 91.7824 81.2012 92.8398 85.1696C89.4032 80.143 87.9492 71.4125 88.3458 65.46C88.7423 61.0948 89.5354 57.5232 92.3111 54.2163ZM92.7076 85.0373C89.9319 84.5082 82.7944 82.3917 80.283 83.7145C79.7543 83.979 79.0934 84.5082 78.6969 84.905C78.9613 84.1113 78.8291 84.1113 79.3578 83.4499C82.6622 79.6138 89.4032 83.1854 92.7076 85.0373Z" fill="white"/>
<path d="M102.356 111.89C125.716 111.89 144.653 92.9386 144.653 69.5607C144.653 46.1829 125.716 27.2314 102.356 27.2314C78.9968 27.2314 60.0601 46.1829 60.0601 69.5607C60.0601 92.9386 78.9968 111.89 102.356 111.89Z" stroke="white" stroke-width="1.82669" stroke-miterlimit="10"/>
<path d="M162.637 80.449V48.1713H169.392C170.873 48.1713 172.127 48.398 173.155 48.8513C174.212 49.3046 175.074 49.9091 175.739 50.6647C176.404 51.4202 176.872 52.2967 177.144 53.294C177.446 54.2611 177.597 55.2736 177.597 56.3314V57.5101C177.597 58.3865 177.522 59.127 177.371 59.7314C177.25 60.3359 177.053 60.8648 176.781 61.3181C176.268 62.1643 175.482 62.8897 174.424 63.4941C175.512 64.0079 176.313 64.7635 176.827 65.7608C177.34 66.7582 177.597 68.1182 177.597 69.8409V71.6542C177.597 74.4951 176.902 76.6712 175.512 78.1823C174.152 79.6934 171.961 80.449 168.939 80.449H162.637ZM167.261 65.4888V75.8249H169.256C170.193 75.8249 170.918 75.6889 171.432 75.4169C171.976 75.1449 172.384 74.7671 172.656 74.2836C172.928 73.8 173.094 73.2258 173.155 72.5609C173.215 71.896 173.245 71.1707 173.245 70.3849C173.245 69.5689 173.2 68.8586 173.109 68.2542C173.019 67.6497 172.837 67.1359 172.565 66.7128C172.263 66.2897 171.855 65.9875 171.341 65.8062C170.828 65.5946 170.148 65.4888 169.301 65.4888H167.261ZM167.261 52.5233V61.4088H169.347C170.888 61.4088 171.916 61.031 172.429 60.2754C172.973 59.4896 173.245 58.3563 173.245 56.8754C173.245 55.4247 172.943 54.3367 172.339 53.6114C171.764 52.886 170.707 52.5233 169.165 52.5233H167.261Z" fill="white"/>
<path d="M181.504 55.7874C181.504 54.4878 181.731 53.3394 182.184 52.342C182.638 51.3447 183.242 50.5135 183.998 49.8487C184.723 49.214 185.539 48.7304 186.446 48.398C187.383 48.0655 188.319 47.8993 189.256 47.8993C190.193 47.8993 191.115 48.0655 192.022 48.398C192.959 48.7304 193.805 49.214 194.56 49.8487C195.286 50.5135 195.875 51.3447 196.328 52.342C196.782 53.3394 197.008 54.4878 197.008 55.7874V72.8329C197.008 74.1929 196.782 75.3565 196.328 76.3236C195.875 77.2907 195.286 78.0916 194.56 78.7263C193.805 79.3912 192.959 79.8899 192.022 80.2223C191.115 80.5548 190.193 80.721 189.256 80.721C188.319 80.721 187.383 80.5548 186.446 80.2223C185.539 79.8899 184.723 79.3912 183.998 78.7263C183.242 78.0916 182.638 77.2907 182.184 76.3236C181.731 75.3565 181.504 74.1929 181.504 72.8329V55.7874ZM186.128 72.8329C186.128 73.9511 186.431 74.7822 187.035 75.3263C187.67 75.84 188.41 76.0969 189.256 76.0969C190.103 76.0969 190.828 75.84 191.432 75.3263C192.067 74.7822 192.384 73.9511 192.384 72.8329V55.7874C192.384 54.6691 192.067 53.8531 191.432 53.3394C190.828 52.7953 190.103 52.5233 189.256 52.5233C188.41 52.5233 187.67 52.7953 187.035 53.3394C186.431 53.8531 186.128 54.6691 186.128 55.7874V72.8329Z" fill="white"/>
<path d="M209.725 69.1609L207.459 57.4647H207.368L205.101 69.1609H209.725ZM198.301 80.449L205.509 48.1713H209.363L216.571 80.449H211.947L210.587 73.5129H204.285L202.925 80.449H198.301Z" fill="white"/>
<path d="M219.246 80.449V52.5233H213.896V48.1713H229.219V52.5233H223.87V80.449H219.246Z" fill="white"/>
<path d="M242.05 71.5451C242.277 71.1824 242.413 70.9104 242.413 70.6384C242.413 70.3211 242.05 69.8224 241.642 69.8224C241.506 69.8224 241.415 69.9584 241.234 70.1851C238.559 73.9931 233.935 80.1132 232.756 80.1132C232.394 80.1132 232.076 79.7958 232.076 79.2065C232.076 72.4064 241.823 56.6303 241.823 51.4622C241.823 49.1502 240.508 47.7902 240.146 47.7902C239.783 47.7902 239.602 48.1528 239.602 48.7875C239.511 54.4089 228.45 68.5531 228.45 76.5318C228.45 80.2038 230.943 81.9265 232.53 81.9265C235.612 81.9265 240.01 74.8998 242.05 71.5451ZM242.688 64.9717C242.688 68.6891 239.016 72.9958 239.016 76.6225C239.016 78.4358 240.738 79.7958 242.28 79.7958C243.866 79.7958 245.181 78.1638 247.448 75.3531C245.09 84.1025 239.197 98.972 231.082 98.972C229.496 98.972 228.498 98.2467 228 98.2467C227.773 98.2467 227.546 98.5187 227.546 98.7907C227.546 99.38 229.224 100.604 231.898 100.604C245.317 100.604 248.626 84.7372 250.938 74.7638C253.024 65.7424 256.107 63.929 256.107 63.6117C256.107 63.249 255.744 62.3423 254.837 62.3423C253.93 62.3423 250.802 66.4224 248.173 71.5904C246.269 75.3078 243.413 78.1185 242.461 78.1185C242.28 78.1185 242.144 77.9372 242.144 77.7558C242.144 75.4438 245.725 70.9557 245.725 68.145C245.725 66.4224 244.456 64.4277 243.322 64.4277C242.869 64.4277 242.688 64.609 242.688 64.9717Z" fill="white"/>
<path d="M242.05 71.5451L241.484 71.1917L241.48 71.1987L242.05 71.5451ZM241.234 70.1851L240.713 69.7686L240.7 69.7849L240.688 69.8019L241.234 70.1851ZM239.602 48.7875L240.268 48.7983V48.7875H239.602ZM242.615 71.8984C242.836 71.5444 243.079 71.1234 243.079 70.6384H241.746C241.746 70.6974 241.717 70.8205 241.484 71.1917L242.615 71.8984ZM243.079 70.6384C243.079 70.2674 242.891 69.9146 242.685 69.6761C242.476 69.4338 242.115 69.1557 241.642 69.1557V70.4891C241.606 70.4891 241.593 70.4782 241.606 70.4855C241.62 70.4932 241.646 70.5123 241.675 70.5467C241.705 70.5807 241.727 70.6173 241.74 70.6465C241.746 70.6604 241.748 70.6686 241.748 70.6699C241.749 70.6719 241.746 70.6609 241.746 70.6384H243.079ZM241.642 69.1557C241.314 69.1557 241.096 69.3348 240.983 69.4473C240.886 69.5443 240.779 69.6859 240.713 69.7686L241.754 70.6015C241.779 70.5714 241.801 70.5427 241.821 70.518C241.841 70.4924 241.858 70.4713 241.873 70.4522C241.906 70.412 241.921 70.3958 241.926 70.3901C241.932 70.3843 241.909 70.409 241.861 70.4351C241.835 70.449 241.801 70.4631 241.762 70.4735C241.722 70.484 241.681 70.4891 241.642 70.4891V69.1557ZM240.688 69.8019C239.356 71.6985 237.542 74.1664 235.918 76.1555C235.104 77.152 234.35 78.0147 233.734 78.6231C233.424 78.9287 233.165 79.155 232.962 79.3004C232.86 79.3731 232.786 79.4157 232.737 79.4381C232.682 79.4634 232.695 79.4465 232.756 79.4465V80.7798C232.965 80.7798 233.152 80.7151 233.296 80.649C233.445 80.5798 233.594 80.4873 233.737 80.3851C234.023 80.1809 234.339 79.8994 234.671 79.5717C235.337 78.9137 236.126 78.0083 236.951 76.9987C238.602 74.9758 240.437 72.4796 241.779 70.5683L240.688 69.8019ZM232.756 79.4465C232.764 79.4465 232.776 79.4485 232.787 79.4539C232.798 79.4593 232.801 79.4641 232.797 79.4597C232.79 79.4514 232.743 79.3846 232.743 79.2065H231.41C231.41 79.6177 231.521 80.0042 231.764 80.302C232.011 80.6058 232.369 80.7798 232.756 80.7798V79.4465ZM232.743 79.2065C232.743 77.632 233.315 75.4655 234.226 72.957C235.13 70.4667 236.339 67.7162 237.558 64.9949C238.773 62.2837 239.999 59.5961 240.92 57.2663C241.829 54.9677 242.49 52.8994 242.49 51.4622H241.156C241.156 52.609 240.599 54.4508 239.68 56.7762C238.774 59.0704 237.564 61.7209 236.341 64.4498C235.124 67.1685 233.896 69.9601 232.973 72.5019C232.056 75.0254 231.41 77.381 231.41 79.2065H232.743ZM242.49 51.4622C242.49 50.1779 242.124 49.1431 241.694 48.4185C241.479 48.058 241.243 47.7649 241.017 47.5528C240.905 47.4475 240.785 47.3522 240.661 47.279C240.556 47.217 240.37 47.1235 240.146 47.1235V48.4568C240.012 48.4568 239.947 48.4059 239.983 48.4272C240 48.4375 240.042 48.4665 240.105 48.5248C240.227 48.64 240.388 48.8313 240.547 49.0999C240.865 49.6333 241.156 50.4345 241.156 51.4622H242.49ZM240.146 47.1235C239.685 47.1235 239.34 47.3809 239.15 47.7371C238.984 48.0482 238.935 48.4258 238.935 48.7875H240.268C240.268 48.659 240.278 48.559 240.291 48.4845C240.305 48.4086 240.321 48.3733 240.326 48.3646C240.329 48.3582 240.315 48.3872 240.27 48.4168C240.22 48.4487 240.172 48.4568 240.146 48.4568V47.1235ZM238.935 48.7768C238.915 50.0222 238.27 51.8409 237.217 54.0893C236.177 56.3108 234.798 58.8323 233.403 61.4633C232.014 64.0817 230.615 66.7992 229.563 69.3686C228.515 71.926 227.783 74.4041 227.783 76.5318H229.116C229.116 74.6702 229.767 72.3881 230.796 69.8739C231.821 67.3716 233.193 64.7056 234.581 62.088C235.962 59.4829 237.366 56.9157 238.425 54.6549C239.471 52.4209 240.243 50.3635 240.268 48.7983L238.935 48.7768ZM227.783 76.5318C227.783 80.5211 230.526 82.5932 232.53 82.5932V81.2599C231.36 81.2599 229.116 79.8866 229.116 76.5318H227.783ZM232.53 82.5932C233.535 82.5932 234.54 82.0323 235.451 81.2941C236.381 80.54 237.318 79.5154 238.202 78.4101C239.971 76.1973 241.599 73.569 242.619 71.8915L241.48 71.1987C240.46 72.8758 238.87 75.4383 237.16 77.5775C236.304 78.6483 235.436 79.59 234.611 80.2582C233.767 80.9424 233.065 81.2599 232.53 81.2599V82.5932ZM247.448 75.3531L248.091 75.5266L248.914 72.4726L246.929 74.9346L247.448 75.3531ZM250.938 74.7638L251.588 74.9143L251.588 74.9139L250.938 74.7638ZM248.173 71.5904L248.766 71.8943L248.767 71.8927L248.173 71.5904ZM242.021 64.9717C242.021 66.6546 241.183 68.5175 240.246 70.5524C239.349 72.5022 238.349 74.6319 238.349 76.6225H239.682C239.682 74.9863 240.519 73.1493 241.457 71.1098C242.357 69.1552 243.354 67.0061 243.354 64.9717H242.021ZM238.349 76.6225C238.349 77.7499 238.885 78.7134 239.621 79.3825C240.351 80.0463 241.323 80.4625 242.28 80.4625V79.1292C241.695 79.1292 241.035 78.8654 240.518 78.3959C240.007 77.9316 239.682 77.3084 239.682 76.6225H238.349ZM242.28 80.4625C243.326 80.4625 244.209 79.9168 245.065 79.115C245.917 78.3164 246.845 77.1621 247.967 75.7716L246.929 74.9346C245.783 76.3548 244.921 77.4219 244.153 78.142C243.388 78.8589 242.821 79.1292 242.28 79.1292V80.4625ZM246.804 75.1797C245.634 79.5231 243.59 85.3674 240.847 90.1099C239.475 92.4817 237.946 94.5472 236.29 96.0126C234.635 97.4766 232.895 98.3054 231.082 98.3054V99.6387C233.326 99.6387 235.367 98.6088 237.173 97.0113C238.977 95.4153 240.59 93.2166 242.001 90.7774C244.823 85.8978 246.904 79.9325 248.091 75.5266L246.804 75.1797ZM231.082 98.3054C230.394 98.3054 229.828 98.149 229.356 97.9812C229.237 97.9389 229.125 97.896 229.015 97.8538C228.908 97.8127 228.797 97.7699 228.695 97.7329C228.512 97.6669 228.255 97.58 228 97.58V98.9134C227.994 98.9134 228.048 98.9172 228.242 98.9871C228.328 99.0182 228.422 99.0546 228.537 99.0986C228.648 99.1414 228.774 99.1892 228.91 99.2375C229.458 99.4324 230.184 99.6387 231.082 99.6387V98.3054ZM228 97.58C227.623 97.58 227.338 97.7947 227.176 97.9899C227.006 98.1941 226.88 98.4772 226.88 98.7907H228.213C228.213 98.8145 228.208 98.8283 228.207 98.8326C228.205 98.8368 228.203 98.8397 228.2 98.8435C228.197 98.8467 228.186 98.86 228.159 98.8751C228.132 98.8903 228.077 98.9134 228 98.9134V97.58ZM226.88 98.7907C226.88 99.216 227.151 99.568 227.38 99.7958C227.641 100.054 227.996 100.301 228.419 100.514C229.27 100.942 230.461 101.271 231.898 101.271V99.9374C230.66 99.9374 229.676 99.6538 229.019 99.323C228.689 99.1565 228.458 98.9864 228.32 98.8496C228.151 98.6821 228.213 98.6601 228.213 98.7907H226.88ZM231.898 101.271C238.944 101.271 243.311 97.0754 246.171 91.7388C249.015 86.431 250.438 79.8738 251.588 74.9143L250.289 74.6132C249.127 79.6272 247.739 85.9901 244.996 91.1091C242.268 96.1993 238.272 99.9374 231.898 99.9374V101.271ZM251.588 74.9139C252.617 70.4645 253.883 67.8286 254.867 66.2816C255.359 65.5089 255.785 65.0002 256.087 64.6666C256.163 64.5823 256.232 64.5083 256.294 64.4418C256.355 64.3776 256.415 64.3139 256.464 64.2595C256.511 64.2081 256.569 64.1421 256.617 64.0729C256.643 64.0362 256.773 63.8586 256.773 63.6117H255.44C255.44 63.4919 255.475 63.4056 255.49 63.3708C255.508 63.3325 255.524 63.3097 255.526 63.3073C255.528 63.304 255.518 63.3183 255.476 63.3644C255.437 63.4076 255.388 63.4587 255.322 63.5294C255.258 63.5978 255.182 63.6788 255.098 63.7722C254.756 64.1498 254.282 64.7178 253.742 65.5658C252.664 67.2602 251.346 70.0416 250.289 74.6136L251.588 74.9139ZM256.773 63.6117C256.773 63.2691 256.625 62.814 256.345 62.441C256.045 62.041 255.546 61.6756 254.837 61.6756V63.009C255.035 63.009 255.17 63.097 255.278 63.241C255.336 63.3171 255.379 63.4031 255.407 63.4829C255.438 63.569 255.44 63.6168 255.44 63.6117H256.773ZM254.837 61.6756C254.511 61.6756 254.22 61.8418 254.021 61.9779C253.797 62.132 253.557 62.3431 253.311 62.5899C252.817 63.0859 252.236 63.7865 251.614 64.6336C250.366 66.3317 248.908 68.6751 247.579 71.2881L248.767 71.8927C250.067 69.3377 251.488 67.057 252.688 65.4231C253.29 64.6042 253.826 63.9618 254.255 63.5313C254.471 63.3148 254.645 63.1668 254.775 63.0776C254.932 62.9703 254.937 63.009 254.837 63.009V61.6756ZM247.58 71.2865C246.656 73.0896 245.501 74.6726 244.469 75.7978C243.952 76.3611 243.477 76.7974 243.089 77.0867C242.894 77.2317 242.734 77.3308 242.61 77.3909C242.475 77.4566 242.433 77.4518 242.461 77.4518V78.7852C242.727 78.7852 242.983 78.6925 243.193 78.59C243.415 78.4819 243.649 78.3323 243.886 78.1557C244.36 77.8019 244.897 77.3032 245.451 76.6992C246.561 75.4896 247.786 73.8086 248.766 71.8943L247.58 71.2865ZM242.461 77.4518C242.606 77.4518 242.703 77.5261 242.747 77.5784C242.787 77.6272 242.81 77.6867 242.81 77.7558H241.477C241.477 78.0063 241.568 78.2471 241.722 78.4319C241.879 78.6202 242.135 78.7852 242.461 78.7852V77.4518ZM242.81 77.7558C242.81 77.3213 242.986 76.7131 243.317 75.9348C243.641 75.1712 244.076 74.3306 244.529 73.4394C244.975 72.5605 245.437 71.6373 245.786 70.7518C246.131 69.8744 246.392 68.9737 246.392 68.145H245.058C245.058 68.7218 244.871 69.4361 244.545 70.263C244.223 71.0817 243.789 71.9521 243.34 72.8355C242.897 73.7066 242.437 74.5972 242.09 75.4132C241.749 76.2145 241.477 77.0343 241.477 77.7558H242.81ZM246.392 68.145C246.392 67.1357 246.026 66.083 245.51 65.2798C245.249 64.8752 244.935 64.5091 244.582 64.2376C244.233 63.9693 243.801 63.761 243.322 63.761V65.0943C243.41 65.0943 243.562 65.1353 243.77 65.2949C243.973 65.4512 244.189 65.6915 244.388 66.0009C244.79 66.6257 245.058 67.4317 245.058 68.145H246.392ZM243.322 63.761C243.028 63.761 242.672 63.8164 242.392 64.0654C242.094 64.3306 242.021 64.6867 242.021 64.9717H243.354C243.354 64.9338 243.359 64.9338 243.352 64.9562C243.347 64.9684 243.339 64.986 243.326 65.006C243.313 65.0262 243.297 65.0453 243.278 65.062C243.239 65.0962 243.209 65.1044 243.212 65.1035C243.218 65.1019 243.251 65.0943 243.322 65.0943V63.761Z" fill="white"/>
</svg>
