<svg width="1734" height="146" viewBox="0 0 1734 146" fill="none" xmlns="http://www.w3.org/2000/svg">
<path fill-rule="evenodd" clip-rule="evenodd" d="M0 0L71.7984 5.48555C144.952 10.9711 288.548 21.9422 433.5 40.5087C578.452 59.4971 722.048 86.5029 867 91.9884C1011.95 97.474 1155.55 81.0173 1300.5 75.9537C1445.45 70.4682 1589.05 75.9537 1662.2 78.4855L1734 81.0173V146H1662.2C1589.05 146 1445.45 146 1300.5 146C1155.55 146 1011.95 146 867 146C722.048 146 578.452 146 433.5 146C288.548 146 144.952 146 71.7984 146H0V0Z" fill="#20DF7F" fill-opacity="0.09"/>
<path fill-rule="evenodd" clip-rule="evenodd" d="M0 58.4L57.8 70.08C115.6 81.76 231.2 105.12 346.8 99.28C462.4 93.44 578 58.4 693.6 35.04C809.2 11.68 924.8 0 1040.4 0C1156 0 1271.6 11.68 1387.2 32.12C1502.8 52.56 1618.4 81.76 1676.2 96.36L1734 110.96V146H1676.2C1618.4 146 1502.8 146 1387.2 146C1271.6 146 1156 146 1040.4 146C924.8 146 809.2 146 693.6 146C578 146 462.4 146 346.8 146C231.2 146 115.6 146 57.8 146H0V58.4Z" fill="#E5E5E5" fill-opacity="0.13"/>
</svg>
